<?xml version="1.0" encoding="UTF-8" standalone="no"?>
<!DOCTYPE svg PUBLIC "-//W3C//DTD SVG 1.1//EN"
 "http://www.w3.org/Graphics/SVG/1.1/DTD/svg11.dtd">
<!-- Generated by graphviz version 2.40.1 (20161225.0304)
 -->
<!-- Title: Database Structure Pages: 1 -->
<svg width="604pt" height="447pt"
 viewBox="0.00 0.00 603.71 447.00" xmlns="http://www.w3.org/2000/svg" xmlns:xlink="http://www.w3.org/1999/xlink">
<g id="graph0" class="graph" transform="scale(1 1) rotate(0) translate(4 443)">
<title>Database Structure</title>
<polygon fill="#ffffff" stroke="transparent" points="-4,4 -4,-443 599.7143,-443 599.7143,4 -4,4"/>
<text text-anchor="middle" x="297.8571" y="-423.8" font-family="Helvetica,sans-Serif" font-size="14.00" fill="#000000">ER Diagram: voucher</text>
<!-- phinxlog -->
<g id="node1" class="node">
<title>phinxlog</title>
<polygon fill="#dddddd" stroke="transparent" points="48.7143,-84 48.7143,-104 197.7143,-104 197.7143,-84 48.7143,-84"/>
<polygon fill="none" stroke="#000000" points="48.7143,-84 48.7143,-104 197.7143,-104 197.7143,-84 48.7143,-84"/>
<text text-anchor="start" x="98.3246" y="-89.8" font-family="Times,serif" font-size="14.00" fill="#000000">phinxlog</text>
<polygon fill="none" stroke="#000000" points="48.7143,-64 48.7143,-84 197.7143,-84 197.7143,-64 48.7143,-64"/>
<text text-anchor="start" x="83.995" y="-70.8" font-family="Times,serif" font-size="14.00" fill="#000000">version:</text>
<text text-anchor="start" x="129.0986" y="-70.8" font-family="Helvetica,sans-Serif" font-style="oblique" font-size="10.00" fill="#000000">BIGINT</text>
<polygon fill="none" stroke="#000000" points="48.7143,-44 48.7143,-64 197.7143,-64 197.7143,-44 48.7143,-44"/>
<text text-anchor="start" x="51.3139" y="-50.8" font-family="Times,serif" font-size="14.00" fill="#000000">migration_name:</text>
<text text-anchor="start" x="146.9555" y="-50.8" font-family="Helvetica,sans-Serif" font-style="oblique" font-size="10.00" fill="#000000">VARCHAR</text>
<polygon fill="none" stroke="#000000" points="48.7143,-24 48.7143,-44 197.7143,-44 197.7143,-24 48.7143,-24"/>
<text text-anchor="start" x="64.4775" y="-30.8" font-family="Times,serif" font-size="14.00" fill="#000000">start_time:</text>
<text text-anchor="start" x="124.3534" y="-30.8" font-family="Helvetica,sans-Serif" font-style="oblique" font-size="10.00" fill="#000000">TIMESTAMP</text>
<polygon fill="none" stroke="#000000" points="48.7143,-4 48.7143,-24 197.7143,-24 197.7143,-4 48.7143,-4"/>
<text text-anchor="start" x="66.4223" y="-10.8" font-family="Times,serif" font-size="14.00" fill="#000000">end_time:</text>
<text text-anchor="start" x="122.4086" y="-10.8" font-family="Helvetica,sans-Serif" font-style="oblique" font-size="10.00" fill="#000000">TIMESTAMP</text>
</g>
<!-- special_offers -->
<g id="node2" class="node">
<title>special_offers</title>
<polygon fill="#dddddd" stroke="transparent" points="424.7143,-207 424.7143,-227 552.7143,-227 552.7143,-207 424.7143,-207"/>
<polygon fill="none" stroke="#000000" points="424.7143,-207 424.7143,-227 552.7143,-227 552.7143,-207 424.7143,-207"/>
<text text-anchor="start" x="449.5785" y="-212.8" font-family="Times,serif" font-size="14.00" fill="#000000">special_offers</text>
<polygon fill="none" stroke="#000000" points="424.7143,-187 424.7143,-207 552.7143,-207 552.7143,-187 424.7143,-187"/>
<text text-anchor="start" x="473.2704" y="-193.8" font-family="Times,serif" font-size="14.00" fill="#000000">id:</text>
<text text-anchor="start" x="488.0497" y="-193.8" font-family="Helvetica,sans-Serif" font-style="oblique" font-size="10.00" fill="#000000">INT</text>
<polygon fill="none" stroke="#000000" points="424.7143,-167 424.7143,-187 552.7143,-187 552.7143,-167 424.7143,-167"/>
<text text-anchor="start" x="447.5312" y="-173.8" font-family="Times,serif" font-size="14.00" fill="#000000">name:</text>
<text text-anchor="start" x="481.7382" y="-173.8" font-family="Helvetica,sans-Serif" font-style="oblique" font-size="10.00" fill="#000000">VARCHAR</text>
<polygon fill="none" stroke="#000000" points="424.7143,-147 424.7143,-167 552.7143,-167 552.7143,-147 424.7143,-147"/>
<text text-anchor="start" x="440.8222" y="-153.8" font-family="Times,serif" font-size="14.00" fill="#000000">discount:</text>
<text text-anchor="start" x="492.1533" y="-153.8" font-family="Helvetica,sans-Serif" font-style="oblique" font-size="10.00" fill="#000000">DECIMAL</text>
<polygon fill="none" stroke="#000000" points="424.7143,-127 424.7143,-147 552.7143,-147 552.7143,-127 424.7143,-127"/>
<text text-anchor="start" x="429.2153" y="-133.8" font-family="Times,serif" font-size="14.00" fill="#000000">created_at:</text>
<text text-anchor="start" x="490.6157" y="-133.8" font-family="Helvetica,sans-Serif" font-style="oblique" font-size="10.00" fill="#000000">TIMESTAMP</text>
<polygon fill="none" stroke="#000000" points="424.7143,-107 424.7143,-127 552.7143,-127 552.7143,-107 424.7143,-107"/>
<text text-anchor="start" x="427.2602" y="-113.8" font-family="Times,serif" font-size="14.00" fill="#000000">updated_at:</text>
<text text-anchor="start" x="492.5707" y="-113.8" font-family="Helvetica,sans-Serif" font-style="oblique" font-size="10.00" fill="#000000">TIMESTAMP</text>
<polygon fill="none" stroke="#000000" points="424.7143,-87 424.7143,-107 552.7143,-107 552.7143,-87 424.7143,-87"/>
<text text-anchor="start" x="456.103" y="-93.8" font-family="Times,serif" font-size="14.00" fill="#000000">status:</text>
<text text-anchor="start" x="491.8823" y="-93.8" font-family="Helvetica,sans-Serif" font-style="oblique" font-size="10.00" fill="#000000">ENUM</text>
</g>
<!-- users -->
<g id="node3" class="node">
<title>users</title>
<polygon fill="#dddddd" stroke="transparent" points="424.7143,-393 424.7143,-413 552.7143,-413 552.7143,-393 424.7143,-393"/>
<polygon fill="none" stroke="#000000" points="424.7143,-393 424.7143,-413 552.7143,-413 552.7143,-393 424.7143,-393"/>
<text text-anchor="start" x="474.3281" y="-398.8" font-family="Times,serif" font-size="14.00" fill="#000000">users</text>
<polygon fill="none" stroke="#000000" points="424.7143,-373 424.7143,-393 552.7143,-393 552.7143,-373 424.7143,-373"/>
<text text-anchor="start" x="473.2704" y="-379.8" font-family="Times,serif" font-size="14.00" fill="#000000">id:</text>
<text text-anchor="start" x="488.0497" y="-379.8" font-family="Helvetica,sans-Serif" font-style="oblique" font-size="10.00" fill="#000000">INT</text>
<polygon fill="none" stroke="#000000" points="424.7143,-353 424.7143,-373 552.7143,-373 552.7143,-353 424.7143,-353"/>
<text text-anchor="start" x="460.1572" y="-359.8" font-family="Times,serif" font-size="14.00" fill="#000000">uuid:</text>
<text text-anchor="start" x="488.9365" y="-359.8" font-family="Helvetica,sans-Serif" font-style="oblique" font-size="10.00" fill="#000000">CHAR</text>
<polygon fill="none" stroke="#000000" points="424.7143,-333 424.7143,-353 552.7143,-353 552.7143,-333 424.7143,-333"/>
<text text-anchor="start" x="447.5312" y="-339.8" font-family="Times,serif" font-size="14.00" fill="#000000">name:</text>
<text text-anchor="start" x="481.7382" y="-339.8" font-family="Helvetica,sans-Serif" font-style="oblique" font-size="10.00" fill="#000000">VARCHAR</text>
<polygon fill="none" stroke="#000000" points="424.7143,-313 424.7143,-333 552.7143,-333 552.7143,-313 424.7143,-313"/>
<text text-anchor="start" x="447.1415" y="-319.8" font-family="Times,serif" font-size="14.00" fill="#000000">email:</text>
<text text-anchor="start" x="482.1279" y="-319.8" font-family="Helvetica,sans-Serif" font-style="oblique" font-size="10.00" fill="#000000">VARCHAR</text>
<polygon fill="none" stroke="#000000" points="424.7143,-293 424.7143,-313 552.7143,-313 552.7143,-293 424.7143,-293"/>
<text text-anchor="start" x="429.2153" y="-299.8" font-family="Times,serif" font-size="14.00" fill="#000000">created_at:</text>
<text text-anchor="start" x="490.6157" y="-299.8" font-family="Helvetica,sans-Serif" font-style="oblique" font-size="10.00" fill="#000000">TIMESTAMP</text>
<polygon fill="none" stroke="#000000" points="424.7143,-273 424.7143,-293 552.7143,-293 552.7143,-273 424.7143,-273"/>
<text text-anchor="start" x="427.2602" y="-279.8" font-family="Times,serif" font-size="14.00" fill="#000000">updated_at:</text>
<text text-anchor="start" x="492.5707" y="-279.8" font-family="Helvetica,sans-Serif" font-style="oblique" font-size="10.00" fill="#000000">TIMESTAMP</text>
<polygon fill="none" stroke="#000000" points="424.7143,-253 424.7143,-273 552.7143,-273 552.7143,-253 424.7143,-253"/>
<text text-anchor="start" x="456.103" y="-259.8" font-family="Times,serif" font-size="14.00" fill="#000000">status:</text>
<text text-anchor="start" x="491.8823" y="-259.8" font-family="Helvetica,sans-Serif" font-style="oblique" font-size="10.00" fill="#000000">ENUM</text>
</g>
<!-- vouchers -->
<g id="node4" class="node">
<title>vouchers</title>
<polygon fill="#dddddd" stroke="transparent" points="48.7143,-350 48.7143,-370 196.7143,-370 196.7143,-350 48.7143,-350"/>
<polygon fill="none" stroke="#000000" points="48.7143,-350 48.7143,-370 196.7143,-370 196.7143,-350 48.7143,-350"/>
<text text-anchor="start" x="97.4452" y="-355.8" font-family="Times,serif" font-size="14.00" fill="#000000">vouchers</text>
<polygon fill="none" stroke="#000000" points="48.7143,-330 48.7143,-350 196.7143,-350 196.7143,-330 48.7143,-330"/>
<text text-anchor="start" x="107.2704" y="-336.8" font-family="Times,serif" font-size="14.00" fill="#000000">id:</text>
<text text-anchor="start" x="122.0497" y="-336.8" font-family="Helvetica,sans-Serif" font-style="oblique" font-size="10.00" fill="#000000">INT</text>
<polygon fill="none" stroke="#000000" points="48.7143,-310 48.7143,-330 196.7143,-330 196.7143,-310 48.7143,-310"/>
<text text-anchor="start" x="83.476" y="-316.8" font-family="Times,serif" font-size="14.00" fill="#000000">code:</text>
<text text-anchor="start" x="113.7934" y="-316.8" font-family="Helvetica,sans-Serif" font-style="oblique" font-size="10.00" fill="#000000">VARCHAR</text>
<polygon fill="none" stroke="#000000" points="48.7143,-290 48.7143,-310 196.7143,-310 196.7143,-290 48.7143,-290"/>
<text text-anchor="start" x="92.1083" y="-296.8" font-family="Times,serif" font-size="14.00" fill="#000000">user_id:</text>
<text text-anchor="start" x="137.2118" y="-296.8" font-family="Helvetica,sans-Serif" font-style="oblique" font-size="10.00" fill="#000000">INT</text>
<polygon fill="none" stroke="#000000" points="48.7143,-270 48.7143,-290 196.7143,-290 196.7143,-270 48.7143,-270"/>
<text text-anchor="start" x="67.3588" y="-276.8" font-family="Times,serif" font-size="14.00" fill="#000000">special_offer_id:</text>
<text text-anchor="start" x="161.9614" y="-276.8" font-family="Helvetica,sans-Serif" font-style="oblique" font-size="10.00" fill="#000000">INT</text>
<polygon fill="none" stroke="#000000" points="48.7143,-250 48.7143,-270 196.7143,-270 196.7143,-250 48.7143,-250"/>
<text text-anchor="start" x="58.9291" y="-256.8" font-family="Times,serif" font-size="14.00" fill="#000000">expiry_date:</text>
<text text-anchor="start" x="128.9018" y="-256.8" font-family="Helvetica,sans-Serif" font-style="oblique" font-size="10.00" fill="#000000">TIMESTAMP</text>
<polygon fill="none" stroke="#000000" points="48.7143,-230 48.7143,-250 196.7143,-250 196.7143,-230 48.7143,-230"/>
<text text-anchor="start" x="70.3461" y="-236.8" font-family="Times,serif" font-size="14.00" fill="#000000">expire_interval:</text>
<text text-anchor="start" x="158.9741" y="-236.8" font-family="Helvetica,sans-Serif" font-style="oblique" font-size="10.00" fill="#000000">INT</text>
<polygon fill="none" stroke="#000000" points="48.7143,-210 48.7143,-230 196.7143,-230 196.7143,-210 48.7143,-210"/>
<text text-anchor="start" x="80.3261" y="-216.8" font-family="Times,serif" font-size="14.00" fill="#000000">is_used:</text>
<text text-anchor="start" x="126.2158" y="-216.8" font-family="Helvetica,sans-Serif" font-style="oblique" font-size="10.00" fill="#000000">TINYINT</text>
<polygon fill="none" stroke="#000000" points="48.7143,-190 48.7143,-210 196.7143,-210 196.7143,-190 48.7143,-190"/>
<text text-anchor="start" x="51.5429" y="-196.8" font-family="Times,serif" font-size="14.00" fill="#000000">date_of_usage:</text>
<text text-anchor="start" x="136.288" y="-196.8" font-family="Helvetica,sans-Serif" font-style="oblique" font-size="10.00" fill="#000000">TIMESTAMP</text>
<polygon fill="none" stroke="#000000" points="48.7143,-170 48.7143,-190 196.7143,-190 196.7143,-170 48.7143,-170"/>
<text text-anchor="start" x="63.2153" y="-176.8" font-family="Times,serif" font-size="14.00" fill="#000000">created_at:</text>
<text text-anchor="start" x="124.6157" y="-176.8" font-family="Helvetica,sans-Serif" font-style="oblique" font-size="10.00" fill="#000000">TIMESTAMP</text>
<polygon fill="none" stroke="#000000" points="48.7143,-150 48.7143,-170 196.7143,-170 196.7143,-150 48.7143,-150"/>
<text text-anchor="start" x="61.2602" y="-156.8" font-family="Times,serif" font-size="14.00" fill="#000000">updated_at:</text>
<text text-anchor="start" x="126.5707" y="-156.8" font-family="Helvetica,sans-Serif" font-style="oblique" font-size="10.00" fill="#000000">TIMESTAMP</text>
<polygon fill="none" stroke="#000000" points="48.7143,-130 48.7143,-150 196.7143,-150 196.7143,-130 48.7143,-130"/>
<text text-anchor="start" x="90.103" y="-136.8" font-family="Times,serif" font-size="14.00" fill="#000000">status:</text>
<text text-anchor="start" x="125.8823" y="-136.8" font-family="Helvetica,sans-Serif" font-style="oblique" font-size="10.00" fill="#000000">ENUM</text>
</g>
<!-- vouchers&#45;&gt;special_offers -->
<g id="edge2" class="edge">
<title>vouchers:special_offer_id&#45;&gt;special_offers:id</title>
<path fill="none" stroke="#444444" stroke-dasharray="5,2" d="M196.7143,-280C301.0779,-280 315.982,-202.2634 414.5797,-197.253"/>
<polygon fill="#444444" stroke="#444444" points="424.8017,-200.4989 414.7174,-197.2497 424.6269,-193.5011 424.8017,-200.4989"/>
</g>
<!-- vouchers&#45;&gt;users -->
<g id="edge1" class="edge">
<title>vouchers:user_id&#45;&gt;users:id</title>
<path fill="none" stroke="#444444" stroke-dasharray="5,2" d="M196.7143,-300C301.0779,-300 315.982,-377.7366 414.5797,-382.747"/>
<polygon fill="#444444" stroke="#444444" points="424.6269,-386.4989 414.7174,-382.7503 424.8017,-379.5011 424.6269,-386.4989"/>
</g>
</g>
</svg>
